<mxfile host="app.diagrams.net" agent="Mozilla/5.0 (Windows NT 10.0; Win64; x64) AppleWebKit/537.36 (KHTML, like Gecko) Chrome/139.0.0.0 Safari/537.36" version="27.2.0">
  <diagram name="Page-1" id="knrP1FRMyhIRJTOhsAG8">
    <mxGraphModel dx="1226" dy="628" grid="1" gridSize="10" guides="1" tooltips="1" connect="1" arrows="1" fold="1" page="1" pageScale="1" pageWidth="827" pageHeight="1169" math="0" shadow="0">
      <root>
        <mxCell id="0" />
        <mxCell id="1" parent="0" />
        <mxCell id="7wEqkuw75IH8k5fswQXJ-3" value="" style="rounded=0;whiteSpace=wrap;html=1;" parent="1" vertex="1">
          <mxGeometry x="307" y="50" width="280" height="640" as="geometry" />
        </mxCell>
        <mxCell id="7wEqkuw75IH8k5fswQXJ-4" value="Register Account" style="ellipse;whiteSpace=wrap;html=1;" parent="1" vertex="1">
          <mxGeometry x="402" y="140" width="90" height="50" as="geometry" />
        </mxCell>
        <mxCell id="7wEqkuw75IH8k5fswQXJ-5" value="Login-Logout" style="ellipse;whiteSpace=wrap;html=1;" parent="1" vertex="1">
          <mxGeometry x="402" y="200" width="90" height="50" as="geometry" />
        </mxCell>
        <mxCell id="7wEqkuw75IH8k5fswQXJ-6" value="Locate Nearby" style="ellipse;whiteSpace=wrap;html=1;" parent="1" vertex="1">
          <mxGeometry x="402" y="315.25" width="90" height="50" as="geometry" />
        </mxCell>
        <mxCell id="7wEqkuw75IH8k5fswQXJ-7" value="Call Service" style="ellipse;whiteSpace=wrap;html=1;" parent="1" vertex="1">
          <mxGeometry x="402" y="375.25" width="90" height="50" as="geometry" />
        </mxCell>
        <mxCell id="7wEqkuw75IH8k5fswQXJ-8" value="Live Track" style="ellipse;whiteSpace=wrap;html=1;" parent="1" vertex="1">
          <mxGeometry x="402" y="435.25" width="90" height="50" as="geometry" />
        </mxCell>
        <mxCell id="7wEqkuw75IH8k5fswQXJ-9" value="Recommend" style="ellipse;whiteSpace=wrap;html=1;" parent="1" vertex="1">
          <mxGeometry x="402" y="495.25" width="90" height="50" as="geometry" />
        </mxCell>
        <mxCell id="7wEqkuw75IH8k5fswQXJ-10" value="View Account" style="ellipse;whiteSpace=wrap;html=1;" parent="1" vertex="1">
          <mxGeometry x="402" y="555.25" width="90" height="50" as="geometry" />
        </mxCell>
        <mxCell id="7wEqkuw75IH8k5fswQXJ-11" value="Delete Account" style="ellipse;whiteSpace=wrap;html=1;" parent="1" vertex="1">
          <mxGeometry x="402" y="614.75" width="90" height="50" as="geometry" />
        </mxCell>
        <mxCell id="50inLti2EJRgn2HfQ7jm-4" value="&lt;b&gt;&lt;font style=&quot;font-size: 14px;&quot;&gt;Rapid Reach&lt;/font&gt;&lt;/b&gt;" style="text;html=1;align=center;verticalAlign=middle;whiteSpace=wrap;rounded=0;" parent="1" vertex="1">
          <mxGeometry x="387" y="70" width="130" height="30" as="geometry" />
        </mxCell>
        <mxCell id="50inLti2EJRgn2HfQ7jm-10" value="Health Services" style="shape=umlActor;verticalLabelPosition=bottom;verticalAlign=top;html=1;outlineConnect=0;" parent="1" vertex="1">
          <mxGeometry x="87" y="370.25" width="30" height="60" as="geometry" />
        </mxCell>
        <mxCell id="qe3DIYtcyauWk6LwMBc2-10" value="Details" style="ellipse;whiteSpace=wrap;html=1;" parent="1" vertex="1">
          <mxGeometry x="402" y="260" width="90" height="50" as="geometry" />
        </mxCell>
        <mxCell id="fjM64KvfmERClIVA3fNl-9" style="edgeStyle=orthogonalEdgeStyle;rounded=0;orthogonalLoop=1;jettySize=auto;html=1;" edge="1" parent="1">
          <mxGeometry relative="1" as="geometry">
            <mxPoint x="99" y="450" as="targetPoint" />
            <mxPoint x="129" y="500" as="sourcePoint" />
            <Array as="points">
              <mxPoint x="129" y="480" />
              <mxPoint x="99" y="480" />
            </Array>
          </mxGeometry>
        </mxCell>
        <mxCell id="qe3DIYtcyauWk6LwMBc2-11" value="Blood Bank" style="shape=umlActor;verticalLabelPosition=bottom;verticalAlign=top;html=1;outlineConnect=0;" parent="1" vertex="1">
          <mxGeometry x="117" y="500" width="30" height="60" as="geometry" />
        </mxCell>
        <mxCell id="qe3DIYtcyauWk6LwMBc2-16" value="User" style="shape=umlActor;verticalLabelPosition=bottom;verticalAlign=top;html=1;outlineConnect=0;" parent="1" vertex="1">
          <mxGeometry x="727" y="240" width="30" height="60" as="geometry" />
        </mxCell>
        <mxCell id="qe3DIYtcyauWk6LwMBc2-17" value="Admin" style="shape=umlActor;verticalLabelPosition=bottom;verticalAlign=top;html=1;outlineConnect=0;" parent="1" vertex="1">
          <mxGeometry x="707" y="500" width="30" height="60" as="geometry" />
        </mxCell>
        <mxCell id="qe3DIYtcyauWk6LwMBc2-20" value="" style="endArrow=none;html=1;rounded=0;exitX=1;exitY=0.5;exitDx=0;exitDy=0;entryX=0;entryY=0.3333333333333333;entryDx=0;entryDy=0;entryPerimeter=0;" parent="1" source="7wEqkuw75IH8k5fswQXJ-4" target="qe3DIYtcyauWk6LwMBc2-16" edge="1">
          <mxGeometry width="50" height="50" relative="1" as="geometry">
            <mxPoint x="637" y="170" as="sourcePoint" />
            <mxPoint x="687" y="120" as="targetPoint" />
          </mxGeometry>
        </mxCell>
        <mxCell id="qe3DIYtcyauWk6LwMBc2-21" value="" style="endArrow=none;html=1;rounded=0;exitX=1;exitY=0.3333333333333333;exitDx=0;exitDy=0;exitPerimeter=0;entryX=0;entryY=0.5;entryDx=0;entryDy=0;" parent="1" source="50inLti2EJRgn2HfQ7jm-10" target="7wEqkuw75IH8k5fswQXJ-4" edge="1">
          <mxGeometry width="50" height="50" relative="1" as="geometry">
            <mxPoint x="197" y="140" as="sourcePoint" />
            <mxPoint x="247" y="90" as="targetPoint" />
          </mxGeometry>
        </mxCell>
        <mxCell id="qe3DIYtcyauWk6LwMBc2-27" value="" style="endArrow=none;html=1;rounded=0;entryX=0;entryY=0.3333333333333333;entryDx=0;entryDy=0;entryPerimeter=0;exitX=1;exitY=0.5;exitDx=0;exitDy=0;" parent="1" source="7wEqkuw75IH8k5fswQXJ-11" target="qe3DIYtcyauWk6LwMBc2-17" edge="1">
          <mxGeometry width="50" height="50" relative="1" as="geometry">
            <mxPoint x="557" y="399.75" as="sourcePoint" />
            <mxPoint x="752" y="604.75" as="targetPoint" />
          </mxGeometry>
        </mxCell>
        <mxCell id="qe3DIYtcyauWk6LwMBc2-32" value="" style="endArrow=none;html=1;rounded=0;exitX=0;exitY=0.5;exitDx=0;exitDy=0;entryX=1;entryY=0.3333333333333333;entryDx=0;entryDy=0;entryPerimeter=0;" parent="1" source="7wEqkuw75IH8k5fswQXJ-5" target="50inLti2EJRgn2HfQ7jm-10" edge="1">
          <mxGeometry width="50" height="50" relative="1" as="geometry">
            <mxPoint x="502" y="260" as="sourcePoint" />
            <mxPoint x="297" y="475" as="targetPoint" />
          </mxGeometry>
        </mxCell>
        <mxCell id="qe3DIYtcyauWk6LwMBc2-48" value="" style="endArrow=none;html=1;rounded=0;exitX=1;exitY=0.5;exitDx=0;exitDy=0;entryX=0;entryY=0.3333333333333333;entryDx=0;entryDy=0;entryPerimeter=0;" parent="1" source="7wEqkuw75IH8k5fswQXJ-5" target="qe3DIYtcyauWk6LwMBc2-16" edge="1">
          <mxGeometry width="50" height="50" relative="1" as="geometry">
            <mxPoint x="627" y="210" as="sourcePoint" />
            <mxPoint x="822" y="295" as="targetPoint" />
          </mxGeometry>
        </mxCell>
        <mxCell id="qe3DIYtcyauWk6LwMBc2-54" value="" style="endArrow=none;html=1;rounded=0;exitX=1;exitY=0.5;exitDx=0;exitDy=0;entryX=0;entryY=0.3333333333333333;entryDx=0;entryDy=0;entryPerimeter=0;" parent="1" source="7wEqkuw75IH8k5fswQXJ-5" target="qe3DIYtcyauWk6LwMBc2-17" edge="1">
          <mxGeometry width="50" height="50" relative="1" as="geometry">
            <mxPoint x="757" y="455" as="sourcePoint" />
            <mxPoint x="952" y="350" as="targetPoint" />
          </mxGeometry>
        </mxCell>
        <mxCell id="qe3DIYtcyauWk6LwMBc2-56" value="" style="endArrow=none;html=1;rounded=0;exitX=1;exitY=0.5;exitDx=0;exitDy=0;entryX=0;entryY=0.3333333333333333;entryDx=0;entryDy=0;entryPerimeter=0;" parent="1" source="7wEqkuw75IH8k5fswQXJ-6" target="qe3DIYtcyauWk6LwMBc2-16" edge="1">
          <mxGeometry width="50" height="50" relative="1" as="geometry">
            <mxPoint x="757" y="525" as="sourcePoint" />
            <mxPoint x="687" y="120" as="targetPoint" />
          </mxGeometry>
        </mxCell>
        <mxCell id="qe3DIYtcyauWk6LwMBc2-59" value="" style="endArrow=none;html=1;rounded=0;exitX=1;exitY=0.5;exitDx=0;exitDy=0;entryX=0;entryY=0.3333333333333333;entryDx=0;entryDy=0;entryPerimeter=0;" parent="1" source="7wEqkuw75IH8k5fswQXJ-7" target="qe3DIYtcyauWk6LwMBc2-16" edge="1">
          <mxGeometry width="50" height="50" relative="1" as="geometry">
            <mxPoint x="817" y="485" as="sourcePoint" />
            <mxPoint x="1012" y="380" as="targetPoint" />
          </mxGeometry>
        </mxCell>
        <mxCell id="qe3DIYtcyauWk6LwMBc2-61" value="" style="endArrow=none;html=1;rounded=0;exitX=0;exitY=0.3333333333333333;exitDx=0;exitDy=0;exitPerimeter=0;entryX=1;entryY=0.5;entryDx=0;entryDy=0;" parent="1" source="qe3DIYtcyauWk6LwMBc2-16" target="7wEqkuw75IH8k5fswQXJ-9" edge="1">
          <mxGeometry width="50" height="50" relative="1" as="geometry">
            <mxPoint x="787" y="525" as="sourcePoint" />
            <mxPoint x="982" y="420" as="targetPoint" />
          </mxGeometry>
        </mxCell>
        <mxCell id="qe3DIYtcyauWk6LwMBc2-72" value="" style="endArrow=none;html=1;rounded=0;entryX=1;entryY=0.3333333333333333;entryDx=0;entryDy=0;entryPerimeter=0;exitX=0;exitY=0.5;exitDx=0;exitDy=0;" parent="1" source="7wEqkuw75IH8k5fswQXJ-11" target="50inLti2EJRgn2HfQ7jm-10" edge="1">
          <mxGeometry width="50" height="50" relative="1" as="geometry">
            <mxPoint x="422" y="820" as="sourcePoint" />
            <mxPoint x="227" y="770" as="targetPoint" />
          </mxGeometry>
        </mxCell>
        <mxCell id="qe3DIYtcyauWk6LwMBc2-73" value="" style="endArrow=none;html=1;rounded=0;exitX=1;exitY=0.5;exitDx=0;exitDy=0;entryX=0;entryY=0.3333333333333333;entryDx=0;entryDy=0;entryPerimeter=0;" parent="1" source="7wEqkuw75IH8k5fswQXJ-10" target="qe3DIYtcyauWk6LwMBc2-17" edge="1">
          <mxGeometry width="50" height="50" relative="1" as="geometry">
            <mxPoint x="447" y="670" as="sourcePoint" />
            <mxPoint x="642" y="1070" as="targetPoint" />
          </mxGeometry>
        </mxCell>
        <mxCell id="fsYnOv0Tyk64vYEKMaIF-12" value="" style="endArrow=none;html=1;rounded=0;exitX=0;exitY=0.5;exitDx=0;exitDy=0;entryX=1;entryY=0.3333333333333333;entryDx=0;entryDy=0;entryPerimeter=0;" parent="1" source="7wEqkuw75IH8k5fswQXJ-5" target="50inLti2EJRgn2HfQ7jm-10" edge="1">
          <mxGeometry width="50" height="50" relative="1" as="geometry">
            <mxPoint x="442" y="170" as="sourcePoint" />
            <mxPoint x="157" y="175" as="targetPoint" />
          </mxGeometry>
        </mxCell>
        <mxCell id="fsYnOv0Tyk64vYEKMaIF-13" value="" style="endArrow=none;html=1;rounded=0;exitX=0;exitY=0.5;exitDx=0;exitDy=0;entryX=1;entryY=0.3333333333333333;entryDx=0;entryDy=0;entryPerimeter=0;" parent="1" source="7wEqkuw75IH8k5fswQXJ-7" target="50inLti2EJRgn2HfQ7jm-10" edge="1">
          <mxGeometry width="50" height="50" relative="1" as="geometry">
            <mxPoint x="307" y="440" as="sourcePoint" />
            <mxPoint x="22" y="330" as="targetPoint" />
          </mxGeometry>
        </mxCell>
        <mxCell id="fsYnOv0Tyk64vYEKMaIF-14" value="" style="endArrow=none;html=1;rounded=0;exitX=0;exitY=0.5;exitDx=0;exitDy=0;entryX=1;entryY=0.3333333333333333;entryDx=0;entryDy=0;entryPerimeter=0;" parent="1" source="qe3DIYtcyauWk6LwMBc2-10" target="50inLti2EJRgn2HfQ7jm-10" edge="1">
          <mxGeometry width="50" height="50" relative="1" as="geometry">
            <mxPoint x="362" y="500" as="sourcePoint" />
            <mxPoint x="117" y="230" as="targetPoint" />
          </mxGeometry>
        </mxCell>
        <mxCell id="fsYnOv0Tyk64vYEKMaIF-18" value="" style="endArrow=none;html=1;rounded=0;exitX=1;exitY=0.3333333333333333;exitDx=0;exitDy=0;entryX=0;entryY=0.5;entryDx=0;entryDy=0;exitPerimeter=0;" parent="1" source="50inLti2EJRgn2HfQ7jm-10" target="7wEqkuw75IH8k5fswQXJ-10" edge="1">
          <mxGeometry width="50" height="50" relative="1" as="geometry">
            <mxPoint x="1022" y="490" as="sourcePoint" />
            <mxPoint x="737" y="380" as="targetPoint" />
          </mxGeometry>
        </mxCell>
        <mxCell id="fsYnOv0Tyk64vYEKMaIF-21" value="" style="endArrow=none;html=1;rounded=0;exitX=0;exitY=0.3333333333333333;exitDx=0;exitDy=0;exitPerimeter=0;entryX=1;entryY=0.5;entryDx=0;entryDy=0;" parent="1" source="qe3DIYtcyauWk6LwMBc2-16" target="7wEqkuw75IH8k5fswQXJ-8" edge="1">
          <mxGeometry width="50" height="50" relative="1" as="geometry">
            <mxPoint x="892" y="330" as="sourcePoint" />
            <mxPoint x="657" y="590" as="targetPoint" />
          </mxGeometry>
        </mxCell>
        <mxCell id="fsYnOv0Tyk64vYEKMaIF-23" value="" style="endArrow=none;html=1;rounded=0;exitX=0;exitY=0.3333333333333333;exitDx=0;exitDy=0;entryX=1;entryY=0.5;entryDx=0;entryDy=0;exitPerimeter=0;" parent="1" source="qe3DIYtcyauWk6LwMBc2-17" target="qe3DIYtcyauWk6LwMBc2-10" edge="1">
          <mxGeometry width="50" height="50" relative="1" as="geometry">
            <mxPoint x="667" y="480" as="sourcePoint" />
            <mxPoint x="882" y="775" as="targetPoint" />
          </mxGeometry>
        </mxCell>
        <mxCell id="fjM64KvfmERClIVA3fNl-8" style="edgeStyle=orthogonalEdgeStyle;rounded=0;orthogonalLoop=1;jettySize=auto;html=1;" edge="1" parent="1" source="fjM64KvfmERClIVA3fNl-2">
          <mxGeometry relative="1" as="geometry">
            <mxPoint x="99" y="450" as="targetPoint" />
            <Array as="points">
              <mxPoint x="54" y="480" />
              <mxPoint x="99" y="480" />
            </Array>
          </mxGeometry>
        </mxCell>
        <mxCell id="fjM64KvfmERClIVA3fNl-2" value="Hospital" style="shape=umlActor;verticalLabelPosition=bottom;verticalAlign=top;html=1;outlineConnect=0;" vertex="1" parent="1">
          <mxGeometry x="39" y="500" width="30" height="60" as="geometry" />
        </mxCell>
      </root>
    </mxGraphModel>
  </diagram>
</mxfile>
